<?xml version="1.0" standalone="no"?>
<!DOCTYPE svg PUBLIC "-//W3C//DTD SVG 1.1//EN" "http://www.w3.org/Graphics/SVG/1.1/DTD/svg11.dtd">
<svg version="1.1" width="1200" height="326" onload="init(evt)" viewBox="0 0 1200 326" xmlns="http://www.w3.org/2000/svg" xmlns:xlink="http://www.w3.org/1999/xlink">
<!-- Flame graph stack visualization. See https://github.com/brendangregg/FlameGraph for latest version, and http://www.brendangregg.com/flamegraphs.html for examples. -->
<!-- NOTES:  -->
<defs>
	<linearGradient id="background" y1="0" y2="1" x1="0" x2="0" >
		<stop stop-color="#eeeeee" offset="5%" />
		<stop stop-color="#eeeeb0" offset="95%" />
	</linearGradient>
</defs>
<style type="text/css">
	text { font-family:Verdana; font-size:12px; fill:rgb(0,0,0); }
	#search { opacity:0.1; cursor:pointer; }
	#search:hover, #search.show { opacity:1; }
	#subtitle { text-anchor:middle; font-color:rgb(160,160,160); }
	#title { text-anchor:middle; font-size:17px}
	#unzoom { cursor:pointer; }
	#frames > *:hover { stroke:black; stroke-width:0.5; cursor:pointer; }
	.hide { display:none; }
	.parent { opacity:0.5; }
</style>
<script type="text/ecmascript">
<![CDATA[
	"use strict";
	var details, searchbtn, unzoombtn, matchedtxt, svg, searching;
	function init(evt) {
		details = document.getElementById("details").firstChild;
		searchbtn = document.getElementById("search");
		unzoombtn = document.getElementById("unzoom");
		matchedtxt = document.getElementById("matched");
		svg = document.getElementsByTagName("svg")[0];
		searching = 0;
	}

	window.addEventListener("click", function(e) {
		var target = find_group(e.target);
		if (target) {
			if (target.nodeName == "a") {
				if (e.ctrlKey === false) return;
				e.preventDefault();
			}
			if (target.classList.contains("parent")) unzoom();
			zoom(target);
		}
		else if (e.target.id == "unzoom") unzoom();
		else if (e.target.id == "search") search_prompt();
	}, false)

	// mouse-over for info
	// show
	window.addEventListener("mouseover", function(e) {
		var target = find_group(e.target);
		if (target) details.nodeValue = "Function: " + g_to_text(target);
	}, false)

	// clear
	window.addEventListener("mouseout", function(e) {
		var target = find_group(e.target);
		if (target) details.nodeValue = ' ';
	}, false)

	// ctrl-F for search
	window.addEventListener("keydown",function (e) {
		if (e.keyCode === 114 || (e.ctrlKey && e.keyCode === 70)) {
			e.preventDefault();
			search_prompt();
		}
	}, false)

	// functions
	function find_child(node, selector) {
		var children = node.querySelectorAll(selector);
		if (children.length) return children[0];
		return;
	}
	function find_group(node) {
		var parent = node.parentElement;
		if (!parent) return;
		if (parent.id == "frames") return node;
		return find_group(parent);
	}
	function orig_save(e, attr, val) {
		if (e.attributes["_orig_" + attr] != undefined) return;
		if (e.attributes[attr] == undefined) return;
		if (val == undefined) val = e.attributes[attr].value;
		e.setAttribute("_orig_" + attr, val);
	}
	function orig_load(e, attr) {
		if (e.attributes["_orig_"+attr] == undefined) return;
		e.attributes[attr].value = e.attributes["_orig_" + attr].value;
		e.removeAttribute("_orig_"+attr);
	}
	function g_to_text(e) {
		var text = find_child(e, "title").firstChild.nodeValue;
		return (text)
	}
	function g_to_func(e) {
		var func = g_to_text(e);
		// if there's any manipulation we want to do to the function
		// name before it's searched, do it here before returning.
		return (func);
	}
	function update_text(e) {
		var r = find_child(e, "rect");
		var t = find_child(e, "text");
		var w = parseFloat(r.attributes.width.value) -3;
		var txt = find_child(e, "title").textContent.replace(/\([^(]*\)$/,"");
		t.attributes.x.value = parseFloat(r.attributes.x.value) + 3;

		// Smaller than this size won't fit anything
		if (w < 2 * 12 * 0.59) {
			t.textContent = "";
			return;
		}

		t.textContent = txt;
		// Fit in full text width
		if (/^ *$/.test(txt) || t.getSubStringLength(0, txt.length) < w)
			return;

		for (var x = txt.length - 2; x > 0; x--) {
			if (t.getSubStringLength(0, x + 2) <= w) {
				t.textContent = txt.substring(0, x) + "..";
				return;
			}
		}
		t.textContent = "";
	}

	// zoom
	function zoom_reset(e) {
		if (e.attributes != undefined) {
			orig_load(e, "x");
			orig_load(e, "width");
		}
		if (e.childNodes == undefined) return;
		for (var i = 0, c = e.childNodes; i < c.length; i++) {
			zoom_reset(c[i]);
		}
	}
	function zoom_child(e, x, ratio) {
		if (e.attributes != undefined) {
			if (e.attributes.x != undefined) {
				orig_save(e, "x");
				e.attributes.x.value = (parseFloat(e.attributes.x.value) - x - 10) * ratio + 10;
				if (e.tagName == "text")
					e.attributes.x.value = find_child(e.parentNode, "rect[x]").attributes.x.value + 3;
			}
			if (e.attributes.width != undefined) {
				orig_save(e, "width");
				e.attributes.width.value = parseFloat(e.attributes.width.value) * ratio;
			}
		}

		if (e.childNodes == undefined) return;
		for (var i = 0, c = e.childNodes; i < c.length; i++) {
			zoom_child(c[i], x - 10, ratio);
		}
	}
	function zoom_parent(e) {
		if (e.attributes) {
			if (e.attributes.x != undefined) {
				orig_save(e, "x");
				e.attributes.x.value = 10;
			}
			if (e.attributes.width != undefined) {
				orig_save(e, "width");
				e.attributes.width.value = parseInt(svg.width.baseVal.value) - (10 * 2);
			}
		}
		if (e.childNodes == undefined) return;
		for (var i = 0, c = e.childNodes; i < c.length; i++) {
			zoom_parent(c[i]);
		}
	}
	function zoom(node) {
		var attr = find_child(node, "rect").attributes;
		var width = parseFloat(attr.width.value);
		var xmin = parseFloat(attr.x.value);
		var xmax = parseFloat(xmin + width);
		var ymin = parseFloat(attr.y.value);
		var ratio = (svg.width.baseVal.value - 2 * 10) / width;

		// XXX: Workaround for JavaScript float issues (fix me)
		var fudge = 0.0001;

		unzoombtn.classList.remove("hide");

		var el = document.getElementById("frames").children;
		for (var i = 0; i < el.length; i++) {
			var e = el[i];
			var a = find_child(e, "rect").attributes;
			var ex = parseFloat(a.x.value);
			var ew = parseFloat(a.width.value);
			var upstack;
			// Is it an ancestor
			if (0 == 0) {
				upstack = parseFloat(a.y.value) > ymin;
			} else {
				upstack = parseFloat(a.y.value) < ymin;
			}
			if (upstack) {
				// Direct ancestor
				if (ex <= xmin && (ex+ew+fudge) >= xmax) {
					e.classList.add("parent");
					zoom_parent(e);
					update_text(e);
				}
				// not in current path
				else
					e.classList.add("hide");
			}
			// Children maybe
			else {
				// no common path
				if (ex < xmin || ex + fudge >= xmax) {
					e.classList.add("hide");
				}
				else {
					zoom_child(e, xmin, ratio);
					update_text(e);
				}
			}
		}
	}
	function unzoom() {
		unzoombtn.classList.add("hide");
		var el = document.getElementById("frames").children;
		for(var i = 0; i < el.length; i++) {
			el[i].classList.remove("parent");
			el[i].classList.remove("hide");
			zoom_reset(el[i]);
			update_text(el[i]);
		}
	}

	// search
	function reset_search() {
		var el = document.querySelectorAll("#frames rect");
		for (var i = 0; i < el.length; i++) {
			orig_load(el[i], "fill")
		}
	}
	function search_prompt() {
		if (!searching) {
			var term = prompt("Enter a search term (regexp " +
			    "allowed, eg: ^ext4_)", "");
			if (term != null) {
				search(term)
			}
		} else {
			reset_search();
			searching = 0;
			searchbtn.classList.remove("show");
			searchbtn.firstChild.nodeValue = "Search"
			matchedtxt.classList.add("hide");
			matchedtxt.firstChild.nodeValue = ""
		}
	}
	function search(term) {
		var re = new RegExp(term);
		var el = document.getElementById("frames").children;
		var matches = new Object();
		var maxwidth = 0;
		for (var i = 0; i < el.length; i++) {
			var e = el[i];
			var func = g_to_func(e);
			var rect = find_child(e, "rect");
			if (func == null || rect == null)
				continue;

			// Save max width. Only works as we have a root frame
			var w = parseFloat(rect.attributes.width.value);
			if (w > maxwidth)
				maxwidth = w;

			if (func.match(re)) {
				// highlight
				var x = parseFloat(rect.attributes.x.value);
				orig_save(rect, "fill");
				rect.attributes.fill.value = "rgb(230,0,230)";

				// remember matches
				if (matches[x] == undefined) {
					matches[x] = w;
				} else {
					if (w > matches[x]) {
						// overwrite with parent
						matches[x] = w;
					}
				}
				searching = 1;
			}
		}
		if (!searching)
			return;

		searchbtn.classList.add("show");
		searchbtn.firstChild.nodeValue = "Reset Search";

		// calculate percent matched, excluding vertical overlap
		var count = 0;
		var lastx = -1;
		var lastw = 0;
		var keys = Array();
		for (k in matches) {
			if (matches.hasOwnProperty(k))
				keys.push(k);
		}
		// sort the matched frames by their x location
		// ascending, then width descending
		keys.sort(function(a, b){
			return a - b;
		});
		// Step through frames saving only the biggest bottom-up frames
		// thanks to the sort order. This relies on the tree property
		// where children are always smaller than their parents.
		var fudge = 0.0001;	// JavaScript floating point
		for (var k in keys) {
			var x = parseFloat(keys[k]);
			var w = matches[keys[k]];
			if (x >= lastx + lastw - fudge) {
				count += w;
				lastx = x;
				lastw = w;
			}
		}
		// display matched percent
		matchedtxt.classList.remove("hide");
		var pct = 100 * count / maxwidth;
		if (pct != 100) pct = pct.toFixed(1)
		matchedtxt.firstChild.nodeValue = "Matched: " + pct + "%";
	}
]]>
</script>
<rect x="0.0" y="0" width="1200.0" height="326.0" fill="url(#background)"  />
<text id="title" x="600.00" y="24" >Flame Graph</text>
<text id="details" x="10.00" y="309" > </text>
<text id="unzoom" x="10.00" y="24" class="hide">Reset Zoom</text>
<text id="search" x="1090.00" y="24" >Search</text>
<text id="matched" x="1090.00" y="309" > </text>
<g id="frames">
<g >
<title>pagecache_get_page (1 samples, 0.57%)</title><rect x="1183.3" y="85" width="6.7" height="15.0" fill="rgb(246,162,48)" rx="2" ry="2" />
<text  x="1186.30" y="95.5" ></text>
</g>
<g >
<title>__vfs_read (1 samples, 0.57%)</title><rect x="1183.3" y="149" width="6.7" height="15.0" fill="rgb(254,161,25)" rx="2" ry="2" />
<text  x="1186.30" y="159.5" ></text>
</g>
<g >
<title>__schedule (1 samples, 0.57%)</title><rect x="284.9" y="53" width="6.7" height="15.0" fill="rgb(233,31,6)" rx="2" ry="2" />
<text  x="287.89" y="63.5" ></text>
</g>
<g >
<title>omp_set_lock (9 samples, 5.11%)</title><rect x="1082.7" y="245" width="60.4" height="15.0" fill="rgb(252,28,24)" rx="2" ry="2" />
<text  x="1085.73" y="255.5" >omp_se..</text>
</g>
<g >
<title>do_page_fault (1 samples, 0.57%)</title><rect x="56.9" y="181" width="6.7" height="15.0" fill="rgb(221,222,7)" rx="2" ry="2" />
<text  x="59.93" y="191.5" ></text>
</g>
<g >
<title>do_syscall_64 (1 samples, 0.57%)</title><rect x="284.9" y="197" width="6.7" height="15.0" fill="rgb(252,146,2)" rx="2" ry="2" />
<text  x="287.89" y="207.5" ></text>
</g>
<g >
<title>vfs_write (1 samples, 0.57%)</title><rect x="284.9" y="149" width="6.7" height="15.0" fill="rgb(208,190,3)" rx="2" ry="2" />
<text  x="287.89" y="159.5" ></text>
</g>
<g >
<title>mem_cgroup_commit_charge (1 samples, 0.57%)</title><rect x="1076.0" y="149" width="6.7" height="15.0" fill="rgb(228,117,50)" rx="2" ry="2" />
<text  x="1079.02" y="159.5" ></text>
</g>
<g >
<title>omp_unset_lock (5 samples, 2.84%)</title><rect x="1143.1" y="245" width="33.5" height="15.0" fill="rgb(228,192,30)" rx="2" ry="2" />
<text  x="1146.07" y="255.5" >om..</text>
</g>
<g >
<title>page_fault (1 samples, 0.57%)</title><rect x="36.8" y="197" width="6.7" height="15.0" fill="rgb(221,216,1)" rx="2" ry="2" />
<text  x="39.82" y="207.5" ></text>
</g>
<g >
<title>out (176 samples, 100.00%)</title><rect x="10.0" y="261" width="1180.0" height="15.0" fill="rgb(232,203,16)" rx="2" ry="2" />
<text  x="13.00" y="271.5" >out</text>
</g>
<g >
<title>__handle_mm_fault (1 samples, 0.57%)</title><rect x="56.9" y="133" width="6.7" height="15.0" fill="rgb(223,25,45)" rx="2" ry="2" />
<text  x="59.93" y="143.5" ></text>
</g>
<g >
<title>_cond_resched (1 samples, 0.57%)</title><rect x="284.9" y="69" width="6.7" height="15.0" fill="rgb(227,215,41)" rx="2" ry="2" />
<text  x="287.89" y="79.5" ></text>
</g>
<g >
<title>alloc_pages_vma (1 samples, 0.57%)</title><rect x="1069.3" y="133" width="6.7" height="15.0" fill="rgb(248,54,18)" rx="2" ry="2" />
<text  x="1072.32" y="143.5" ></text>
</g>
<g >
<title>generic_file_read_iter (1 samples, 0.57%)</title><rect x="1183.3" y="101" width="6.7" height="15.0" fill="rgb(238,94,22)" rx="2" ry="2" />
<text  x="1186.30" y="111.5" ></text>
</g>
<g >
<title>handle_mm_fault (2 samples, 1.14%)</title><rect x="1069.3" y="181" width="13.4" height="15.0" fill="rgb(210,68,34)" rx="2" ry="2" />
<text  x="1072.32" y="191.5" ></text>
</g>
<g >
<title>__memmove_avx_unaligned_erms (1 samples, 0.57%)</title><rect x="56.9" y="213" width="6.7" height="15.0" fill="rgb(238,225,36)" rx="2" ry="2" />
<text  x="59.93" y="223.5" ></text>
</g>
<g >
<title>_ZNSirsERi (1 samples, 0.57%)</title><rect x="90.5" y="181" width="6.7" height="15.0" fill="rgb(225,11,19)" rx="2" ry="2" />
<text  x="93.45" y="191.5" ></text>
</g>
<g >
<title>_ZNSi6sentryC2ERSib (1 samples, 0.57%)</title><rect x="83.8" y="181" width="6.7" height="15.0" fill="rgb(222,19,47)" rx="2" ry="2" />
<text  x="86.75" y="191.5" ></text>
</g>
<g >
<title>find_get_entry (1 samples, 0.57%)</title><rect x="1183.3" y="69" width="6.7" height="15.0" fill="rgb(218,168,46)" rx="2" ry="2" />
<text  x="1186.30" y="79.5" ></text>
</g>
<g >
<title>omp_unset_lock@plt (1 samples, 0.57%)</title><rect x="1176.6" y="245" width="6.7" height="15.0" fill="rgb(248,100,42)" rx="2" ry="2" />
<text  x="1179.59" y="255.5" ></text>
</g>
<g >
<title>__x64_sys_write (1 samples, 0.57%)</title><rect x="284.9" y="181" width="6.7" height="15.0" fill="rgb(233,215,26)" rx="2" ry="2" />
<text  x="287.89" y="191.5" ></text>
</g>
<g >
<title>vfs_read (1 samples, 0.57%)</title><rect x="1183.3" y="165" width="6.7" height="15.0" fill="rgb(241,186,7)" rx="2" ry="2" />
<text  x="1186.30" y="175.5" ></text>
</g>
<g >
<title>read (1 samples, 0.57%)</title><rect x="1183.3" y="245" width="6.7" height="15.0" fill="rgb(231,59,9)" rx="2" ry="2" />
<text  x="1186.30" y="255.5" ></text>
</g>
<g >
<title>ksys_write (1 samples, 0.57%)</title><rect x="284.9" y="165" width="6.7" height="15.0" fill="rgb(253,142,24)" rx="2" ry="2" />
<text  x="287.89" y="175.5" ></text>
</g>
<g >
<title>[libstdc++.so.6.0.25] (6 samples, 3.41%)</title><rect x="130.7" y="197" width="40.2" height="15.0" fill="rgb(250,181,43)" rx="2" ry="2" />
<text  x="133.68" y="207.5" >[li..</text>
</g>
<g >
<title>[ld-2.27.so] (1 samples, 0.57%)</title><rect x="36.8" y="229" width="6.7" height="15.0" fill="rgb(246,174,35)" rx="2" ry="2" />
<text  x="39.82" y="239.5" ></text>
</g>
<g >
<title>ksys_read (1 samples, 0.57%)</title><rect x="1183.3" y="181" width="6.7" height="15.0" fill="rgb(207,191,33)" rx="2" ry="2" />
<text  x="1186.30" y="191.5" ></text>
</g>
<g >
<title>radix_tree_lookup_slot (1 samples, 0.57%)</title><rect x="1183.3" y="53" width="6.7" height="15.0" fill="rgb(211,193,15)" rx="2" ry="2" />
<text  x="1186.30" y="63.5" ></text>
</g>
<g >
<title>n_tty_write (1 samples, 0.57%)</title><rect x="284.9" y="101" width="6.7" height="15.0" fill="rgb(206,112,30)" rx="2" ry="2" />
<text  x="287.89" y="111.5" ></text>
</g>
<g >
<title>[unknown] (23 samples, 13.07%)</title><rect x="130.7" y="213" width="154.2" height="15.0" fill="rgb(217,94,31)" rx="2" ry="2" />
<text  x="133.68" y="223.5" >[unknown]</text>
</g>
<g >
<title>entry_SYSCALL_64_after_hwframe (1 samples, 0.57%)</title><rect x="1183.3" y="229" width="6.7" height="15.0" fill="rgb(252,3,37)" rx="2" ry="2" />
<text  x="1186.30" y="239.5" ></text>
</g>
<g >
<title>[libstdc++.so.6.0.25] (4 samples, 2.27%)</title><rect x="10.0" y="245" width="26.8" height="15.0" fill="rgb(222,130,37)" rx="2" ry="2" />
<text  x="13.00" y="255.5" >[..</text>
</g>
<g >
<title>handle_pte_fault (1 samples, 0.57%)</title><rect x="56.9" y="117" width="6.7" height="15.0" fill="rgb(212,83,32)" rx="2" ry="2" />
<text  x="59.93" y="127.5" ></text>
</g>
<g >
<title>all (176 samples, 100%)</title><rect x="10.0" y="277" width="1180.0" height="15.0" fill="rgb(225,201,39)" rx="2" ry="2" />
<text  x="13.00" y="287.5" ></text>
</g>
<g >
<title>_ZN10sequencial28parallel_heap_sort_with_lockEPPiiiS1_ (114 samples, 64.77%)</title><rect x="291.6" y="245" width="764.3" height="15.0" fill="rgb(251,181,43)" rx="2" ry="2" />
<text  x="294.59" y="255.5" >_ZN10sequencial28parallel_heap_sort_with_lockEPPiiiS1_</text>
</g>
<g >
<title>__memmove_avx_unaligned_erms (3 samples, 1.70%)</title><rect x="1062.6" y="245" width="20.1" height="15.0" fill="rgb(230,77,17)" rx="2" ry="2" />
<text  x="1065.61" y="255.5" ></text>
</g>
<g >
<title>ext4_file_read_iter (1 samples, 0.57%)</title><rect x="1183.3" y="117" width="6.7" height="15.0" fill="rgb(250,190,16)" rx="2" ry="2" />
<text  x="1186.30" y="127.5" ></text>
</g>
<g >
<title>_ZNSt13basic_filebufIcSt11char_traitsIcEED0Ev (10 samples, 5.68%)</title><rect x="63.6" y="229" width="67.1" height="15.0" fill="rgb(228,180,5)" rx="2" ry="2" />
<text  x="66.64" y="239.5" >_ZNSt13..</text>
</g>
<g >
<title>tty_write (1 samples, 0.57%)</title><rect x="284.9" y="117" width="6.7" height="15.0" fill="rgb(252,120,36)" rx="2" ry="2" />
<text  x="287.89" y="127.5" ></text>
</g>
<g >
<title>__x64_sys_read (1 samples, 0.57%)</title><rect x="1183.3" y="197" width="6.7" height="15.0" fill="rgb(254,3,41)" rx="2" ry="2" />
<text  x="1186.30" y="207.5" ></text>
</g>
<g >
<title>get_page_from_freelist (1 samples, 0.57%)</title><rect x="1069.3" y="101" width="6.7" height="15.0" fill="rgb(228,191,13)" rx="2" ry="2" />
<text  x="1072.32" y="111.5" ></text>
</g>
<g >
<title>handle_mm_fault (1 samples, 0.57%)</title><rect x="56.9" y="149" width="6.7" height="15.0" fill="rgb(233,71,33)" rx="2" ry="2" />
<text  x="59.93" y="159.5" ></text>
</g>
<g >
<title>new_sync_read (1 samples, 0.57%)</title><rect x="1183.3" y="133" width="6.7" height="15.0" fill="rgb(253,124,30)" rx="2" ry="2" />
<text  x="1186.30" y="143.5" ></text>
</g>
<g >
<title>do_syscall_64 (1 samples, 0.57%)</title><rect x="1183.3" y="213" width="6.7" height="15.0" fill="rgb(254,191,5)" rx="2" ry="2" />
<text  x="1186.30" y="223.5" ></text>
</g>
<g >
<title>__GI___libc_write (1 samples, 0.57%)</title><rect x="284.9" y="229" width="6.7" height="15.0" fill="rgb(213,208,23)" rx="2" ry="2" />
<text  x="287.89" y="239.5" ></text>
</g>
<g >
<title>__alloc_pages_nodemask (1 samples, 0.57%)</title><rect x="1069.3" y="117" width="6.7" height="15.0" fill="rgb(251,139,17)" rx="2" ry="2" />
<text  x="1072.32" y="127.5" ></text>
</g>
<g >
<title>page_fault (1 samples, 0.57%)</title><rect x="56.9" y="197" width="6.7" height="15.0" fill="rgb(239,32,52)" rx="2" ry="2" />
<text  x="59.93" y="207.5" ></text>
</g>
<g >
<title>[libstdc++.so.6.0.25] (2 samples, 1.14%)</title><rect x="43.5" y="229" width="13.4" height="15.0" fill="rgb(241,192,44)" rx="2" ry="2" />
<text  x="46.52" y="239.5" ></text>
</g>
<g >
<title>__do_page_fault (1 samples, 0.57%)</title><rect x="56.9" y="165" width="6.7" height="15.0" fill="rgb(250,133,26)" rx="2" ry="2" />
<text  x="59.93" y="175.5" ></text>
</g>
<g >
<title>do_page_fault (1 samples, 0.57%)</title><rect x="36.8" y="181" width="6.7" height="15.0" fill="rgb(224,18,28)" rx="2" ry="2" />
<text  x="39.82" y="191.5" ></text>
</g>
<g >
<title>finish_task_switch (1 samples, 0.57%)</title><rect x="284.9" y="37" width="6.7" height="15.0" fill="rgb(216,36,3)" rx="2" ry="2" />
<text  x="287.89" y="47.5" ></text>
</g>
<g >
<title>_ZNSt16__numpunct_cacheIcED0Ev (23 samples, 13.07%)</title><rect x="130.7" y="229" width="154.2" height="15.0" fill="rgb(233,155,41)" rx="2" ry="2" />
<text  x="133.68" y="239.5" >_ZNSt16__numpunct_c..</text>
</g>
<g >
<title>[unknown] (1 samples, 0.57%)</title><rect x="56.9" y="229" width="6.7" height="15.0" fill="rgb(253,140,46)" rx="2" ry="2" />
<text  x="59.93" y="239.5" ></text>
</g>
<g >
<title>__do_page_fault (1 samples, 0.57%)</title><rect x="36.8" y="165" width="6.7" height="15.0" fill="rgb(227,138,20)" rx="2" ry="2" />
<text  x="39.82" y="175.5" ></text>
</g>
<g >
<title>_ZNKSt7num_getIcSt19istreambuf_iteratorIcSt11char_traitsIcEEE14_M_extract_intIlEES3_S3_S3_RSt8ios_baseRSt12_Ios_IostateRT_ (1 samples, 0.57%)</title><rect x="77.0" y="181" width="6.8" height="15.0" fill="rgb(222,17,23)" rx="2" ry="2" />
<text  x="80.05" y="191.5" ></text>
</g>
<g >
<title>_ZNSi6sentryC2ERSib (5 samples, 2.84%)</title><rect x="97.2" y="197" width="33.5" height="15.0" fill="rgb(224,147,25)" rx="2" ry="2" />
<text  x="100.16" y="207.5" >_Z..</text>
</g>
<g >
<title>__handle_mm_fault (2 samples, 1.14%)</title><rect x="1069.3" y="165" width="13.4" height="15.0" fill="rgb(214,116,37)" rx="2" ry="2" />
<text  x="1072.32" y="175.5" ></text>
</g>
<g >
<title>__radix_tree_lookup (1 samples, 0.57%)</title><rect x="1183.3" y="37" width="6.7" height="15.0" fill="rgb(208,8,12)" rx="2" ry="2" />
<text  x="1186.30" y="47.5" ></text>
</g>
<g >
<title>_Z9readArrayPc (5 samples, 2.84%)</title><rect x="63.6" y="197" width="33.6" height="15.0" fill="rgb(250,104,0)" rx="2" ry="2" />
<text  x="66.64" y="207.5" >_Z..</text>
</g>
<g >
<title>[unknown] (2 samples, 1.14%)</title><rect x="23.4" y="229" width="13.4" height="15.0" fill="rgb(206,165,43)" rx="2" ry="2" />
<text  x="26.41" y="239.5" ></text>
</g>
<g >
<title>[libstdc++.so.6.0.25] (2 samples, 1.14%)</title><rect x="23.4" y="213" width="13.4" height="15.0" fill="rgb(228,79,19)" rx="2" ry="2" />
<text  x="26.41" y="223.5" ></text>
</g>
<g >
<title>_ZNSi6sentryC2ERSib (1 samples, 0.57%)</title><rect x="1055.9" y="245" width="6.7" height="15.0" fill="rgb(210,95,18)" rx="2" ry="2" />
<text  x="1058.91" y="255.5" ></text>
</g>
<g >
<title>__do_page_fault (3 samples, 1.70%)</title><rect x="1062.6" y="197" width="20.1" height="15.0" fill="rgb(247,33,47)" rx="2" ry="2" />
<text  x="1065.61" y="207.5" ></text>
</g>
<g >
<title>[unknown] (10 samples, 5.68%)</title><rect x="63.6" y="213" width="67.1" height="15.0" fill="rgb(214,26,31)" rx="2" ry="2" />
<text  x="66.64" y="223.5" >[unknown]</text>
</g>
<g >
<title>__memmove_avx_unaligned_erms (1 samples, 0.57%)</title><rect x="36.8" y="213" width="6.7" height="15.0" fill="rgb(238,189,18)" rx="2" ry="2" />
<text  x="39.82" y="223.5" ></text>
</g>
<g >
<title>mutex_lock (1 samples, 0.57%)</title><rect x="284.9" y="85" width="6.7" height="15.0" fill="rgb(214,150,3)" rx="2" ry="2" />
<text  x="287.89" y="95.5" ></text>
</g>
<g >
<title>__vfs_write (1 samples, 0.57%)</title><rect x="284.9" y="133" width="6.7" height="15.0" fill="rgb(212,66,8)" rx="2" ry="2" />
<text  x="287.89" y="143.5" ></text>
</g>
<g >
<title>handle_pte_fault (1 samples, 0.57%)</title><rect x="1069.3" y="149" width="6.7" height="15.0" fill="rgb(211,134,20)" rx="2" ry="2" />
<text  x="1072.32" y="159.5" ></text>
</g>
<g >
<title>entry_SYSCALL_64_after_hwframe (1 samples, 0.57%)</title><rect x="284.9" y="213" width="6.7" height="15.0" fill="rgb(228,173,22)" rx="2" ry="2" />
<text  x="287.89" y="223.5" ></text>
</g>
<g >
<title>page_fault (3 samples, 1.70%)</title><rect x="1062.6" y="229" width="20.1" height="15.0" fill="rgb(220,204,31)" rx="2" ry="2" />
<text  x="1065.61" y="239.5" ></text>
</g>
<g >
<title>do_page_fault (3 samples, 1.70%)</title><rect x="1062.6" y="213" width="20.1" height="15.0" fill="rgb(235,107,48)" rx="2" ry="2" />
<text  x="1065.61" y="223.5" ></text>
</g>
<g >
<title>[unknown] (38 samples, 21.59%)</title><rect x="36.8" y="245" width="254.8" height="15.0" fill="rgb(230,20,18)" rx="2" ry="2" />
<text  x="39.82" y="255.5" >[unknown]</text>
</g>
<g >
<title>_ZNKSt7num_getIcSt19istreambuf_iteratorIcSt11char_traitsIcEEE14_M_extract_intIlEES3_S3_S3_RSt8ios_baseRSt12_Ios_IostateRT_ (17 samples, 9.66%)</title><rect x="170.9" y="197" width="114.0" height="15.0" fill="rgb(211,219,10)" rx="2" ry="2" />
<text  x="173.91" y="207.5" >_ZNKSt7num_get..</text>
</g>
</g>
</svg>
